<svg width="21" height="24" viewBox="0 0 21 24" fill="none" xmlns="http://www.w3.org/2000/svg">
<path d="M6.17167 13.1717C6.06232 13.2801 5.97552 13.4092 5.91629 13.5513C5.85706 13.6935 5.82657 13.846 5.82657 14C5.82657 14.154 5.85706 14.3065 5.91629 14.4487C5.97552 14.5908 6.06232 14.7199 6.17167 14.8283L9.67167 18.3283C9.78012 18.4377 9.90916 18.5245 10.0513 18.5837C10.1935 18.6429 10.346 18.6734 10.5 18.6734C10.654 18.6734 10.8065 18.6429 10.9487 18.5837C11.0908 18.5245 11.2199 18.4377 11.3283 18.3283L14.8283 14.8283C15.048 14.6086 15.1714 14.3107 15.1714 14C15.1714 13.6893 15.048 13.3914 14.8283 13.1717C14.6086 12.952 14.3107 12.8286 14 12.8286C13.6893 12.8286 13.3914 12.952 13.1717 13.1717L11.6667 14.6883V1.16667C11.6667 0.857248 11.5437 0.560501 11.325 0.341709C11.1062 0.122916 10.8094 0 10.5 0C10.1906 0 9.89383 0.122916 9.67504 0.341709C9.45625 0.560501 9.33333 0.857248 9.33333 1.16667V14.6883L7.82833 13.1717C7.71988 13.0623 7.59084 12.9755 7.44867 12.9163C7.3065 12.8571 7.15401 12.8266 7 12.8266C6.84599 12.8266 6.6935 12.8571 6.55133 12.9163C6.40916 12.9755 6.28012 13.0623 6.17167 13.1717ZM17.5 8.16667H15.1667C14.8572 8.16667 14.5605 8.28959 14.3417 8.50838C14.1229 8.72717 14 9.02392 14 9.33334C14 9.64276 14.1229 9.9395 14.3417 10.1583C14.5605 10.3771 14.8572 10.5 15.1667 10.5H17.5C17.8094 10.5 18.1062 10.6229 18.325 10.8417C18.5438 11.0605 18.6667 11.3573 18.6667 11.6667V19.8333C18.6667 20.1428 18.5438 20.4395 18.325 20.6583C18.1062 20.8771 17.8094 21 17.5 21H3.5C3.19058 21 2.89383 20.8771 2.67504 20.6583C2.45625 20.4395 2.33333 20.1428 2.33333 19.8333V11.6667C2.33333 11.3573 2.45625 11.0605 2.67504 10.8417C2.89383 10.6229 3.19058 10.5 3.5 10.5H5.83333C6.14275 10.5 6.4395 10.3771 6.65829 10.1583C6.87708 9.9395 7 9.64276 7 9.33334C7 9.02392 6.87708 8.72717 6.65829 8.50838C6.4395 8.28959 6.14275 8.16667 5.83333 8.16667H3.5C2.57174 8.16667 1.6815 8.53542 1.02513 9.1918C0.368749 9.84817 0 10.7384 0 11.6667V19.8333C0 20.7616 0.368749 21.6518 1.02513 22.3082C1.6815 22.9646 2.57174 23.3333 3.5 23.3333H17.5C18.4283 23.3333 19.3185 22.9646 19.9749 22.3082C20.6313 21.6518 21 20.7616 21 19.8333V11.6667C21 10.7384 20.6313 9.84817 19.9749 9.1918C19.3185 8.53542 18.4283 8.16667 17.5 8.16667Z" fill="black"/>
</svg>
