<svg width="29" height="30" viewBox="0 0 29 30" fill="none" xmlns="http://www.w3.org/2000/svg">
<path d="M26.0625 26.502V10.2L14.4792 3.00003L2.89583 10.2V26.502H8.6875V22.377C8.6875 20.7857 9.29769 19.2596 10.3838 18.1344C11.47 17.0092 12.9431 16.377 14.4792 16.377C16.0152 16.377 17.4883 17.0092 18.5745 18.1344C19.6606 19.2596 20.2708 20.7857 20.2708 22.377V26.502H26.0625ZM17.375 29.502V22.377C17.375 21.5814 17.0699 20.8183 16.5268 20.2557C15.9838 19.6931 15.2472 19.377 14.4792 19.377C13.7111 19.377 12.9746 19.6931 12.4315 20.2557C11.8884 20.8183 11.5833 21.5814 11.5833 22.377V29.502H2.89583C2.12781 29.502 1.39124 29.186 0.84817 28.6234C0.305096 28.0607 1.34062e-10 27.2977 1.34061e-10 26.502V10.2C-4.81105e-06 9.68197 0.129488 9.17274 0.375869 8.72192C0.62225 8.27111 0.977122 7.89407 1.40593 7.62753L12.9893 0.427529C13.4393 0.147776 13.9543 0 14.4792 0C15.004 0 15.519 0.147776 15.9691 0.427529L27.5524 7.62753C27.9812 7.89407 28.3361 8.27111 28.5825 8.72192C28.8288 9.17274 28.9583 9.68197 28.9583 10.2V26.502C28.9583 27.2977 28.6532 28.0607 28.1102 28.6234C27.5671 29.186 26.8305 29.502 26.0625 29.502H17.375Z" fill="#AAAAAA"/>
</svg>
