<svg width="36" height="36" viewBox="0 0 36 36" fill="none" xmlns="http://www.w3.org/2000/svg">
<path d="M6 9.3V27.7C6 28.31 6.22904 28.895 6.63672 29.3263C7.04441 29.7577 7.59736 30 8.17391 30H29.913C30.2013 30 30.4778 29.8788 30.6816 29.6632C30.8855 29.4475 31 29.155 31 28.85V12.75C31 12.445 30.8855 12.1525 30.6816 11.9368C30.4778 11.7212 30.2013 11.6 29.913 11.6H8.17391C7.59736 11.6 7.04441 11.3577 6.63672 10.9263C6.22904 10.495 6 9.91 6 9.3ZM6 9.3C6 8.69 6.22904 8.10499 6.63672 7.67365C7.04441 7.24232 7.59736 7 8.17391 7H26.6522" stroke="#AAAAAA" stroke-width="1.6875" stroke-linecap="round" stroke-linejoin="round"/>
<path d="M25.3125 21.9375C26.2445 21.9375 27 21.182 27 20.25C27 19.318 26.2445 18.5625 25.3125 18.5625C24.3805 18.5625 23.625 19.318 23.625 20.25C23.625 21.182 24.3805 21.9375 25.3125 21.9375Z" fill="#AAAAAA"/>
</svg>
