<svg width="128" height="29" viewBox="0 0 128 29" fill="none" xmlns="http://www.w3.org/2000/svg">
<path d="M0.499911 28V0.727272H7.70872V5.53906H8.02832C8.5965 3.94105 9.54347 2.6804 10.8692 1.7571C12.195 0.833806 13.7812 0.372159 15.6278 0.372159C17.498 0.372159 19.0901 0.839725 20.404 1.77486C21.718 2.69815 22.5939 3.95289 23.0319 5.53906H23.316C23.8723 3.97656 24.8785 2.72775 26.3344 1.79261C27.8022 0.845644 29.5364 0.372159 31.5368 0.372159C34.0818 0.372159 36.1474 1.183 37.7336 2.80469C39.3316 4.41454 40.1306 6.6991 40.1306 9.65838V28H32.5844V11.1499C32.5844 9.63471 32.182 8.49834 31.377 7.74077C30.5721 6.98319 29.566 6.6044 28.3586 6.6044C26.9855 6.6044 25.9142 7.04238 25.1448 7.91832C24.3754 8.78243 23.9907 9.92472 23.9907 11.3452V28H16.6576V10.9901C16.6576 9.65246 16.2729 8.58712 15.5035 7.79403C14.7459 7.00095 13.7457 6.6044 12.5028 6.6044C11.6623 6.6044 10.9047 6.81747 10.23 7.24361C9.56715 7.65791 9.04039 8.24384 8.64977 9.00142C8.25914 9.74716 8.06383 10.6231 8.06383 11.6293V28H0.499911ZM56.4278 28.5327C53.6698 28.5327 51.2846 27.9467 49.2723 26.7749C47.2718 25.5911 45.7271 23.9458 44.6381 21.8388C43.549 19.7199 43.0045 17.2637 43.0045 14.4702C43.0045 11.6529 43.549 9.19081 44.6381 7.08381C45.7271 4.96496 47.2718 3.3196 49.2723 2.14773C51.2846 0.964015 53.6698 0.372159 56.4278 0.372159C59.1859 0.372159 61.5651 0.964015 63.5656 2.14773C65.5779 3.3196 67.1286 4.96496 68.2176 7.08381C69.3066 9.19081 69.8511 11.6529 69.8511 14.4702C69.8511 17.2637 69.3066 19.7199 68.2176 21.8388C67.1286 23.9458 65.5779 25.5911 63.5656 26.7749C61.5651 27.9467 59.1859 28.5327 56.4278 28.5327ZM56.4633 22.6733C57.7181 22.6733 58.7657 22.3182 59.6061 21.608C60.4465 20.8859 61.0798 19.9034 61.5059 18.6605C61.9439 17.4176 62.1629 16.0031 62.1629 14.4169C62.1629 12.8307 61.9439 11.4162 61.5059 10.1733C61.0798 8.9304 60.4465 7.94792 59.6061 7.22585C58.7657 6.50379 57.7181 6.14275 56.4633 6.14275C55.1968 6.14275 54.1314 6.50379 53.2673 7.22585C52.415 7.94792 51.7699 8.9304 51.3319 10.1733C50.9058 11.4162 50.6927 12.8307 50.6927 14.4169C50.6927 16.0031 50.9058 17.4176 51.3319 18.6605C51.7699 19.9034 52.415 20.8859 53.2673 21.608C54.1314 22.3182 55.1968 22.6733 56.4633 22.6733ZM80.3334 12.233V28H72.7694V0.727272H79.9782V5.53906H80.2979C80.9015 3.95289 81.9136 2.69815 83.3341 1.77486C84.7545 0.839725 86.4768 0.372159 88.501 0.372159C90.3949 0.372159 92.0462 0.786458 93.4548 1.61506C94.8634 2.44365 95.9584 3.62737 96.7396 5.16619C97.5209 6.69318 97.9115 8.5161 97.9115 10.6349V28H90.3476V11.9844C90.3594 10.3153 89.9333 9.01326 89.0692 8.07812C88.205 7.13116 87.0154 6.65767 85.5003 6.65767C84.4823 6.65767 83.5827 6.87666 82.8014 7.31463C82.032 7.7526 81.4283 8.39181 80.9903 9.23224C80.5642 10.0608 80.3452 11.0611 80.3334 12.233ZM114.195 28.5327C111.437 28.5327 109.052 27.9467 107.04 26.7749C105.039 25.5911 103.495 23.9458 102.406 21.8388C101.317 19.7199 100.772 17.2637 100.772 14.4702C100.772 11.6529 101.317 9.19081 102.406 7.08381C103.495 4.96496 105.039 3.3196 107.04 2.14773C109.052 0.964015 111.437 0.372159 114.195 0.372159C116.953 0.372159 119.333 0.964015 121.333 2.14773C123.345 3.3196 124.896 4.96496 125.985 7.08381C127.074 9.19081 127.619 11.6529 127.619 14.4702C127.619 17.2637 127.074 19.7199 125.985 21.8388C124.896 23.9458 123.345 25.5911 121.333 26.7749C119.333 27.9467 116.953 28.5327 114.195 28.5327ZM114.231 22.6733C115.486 22.6733 116.533 22.3182 117.374 21.608C118.214 20.8859 118.847 19.9034 119.274 18.6605C119.712 17.4176 119.93 16.0031 119.93 14.4169C119.93 12.8307 119.712 11.4162 119.274 10.1733C118.847 8.9304 118.214 7.94792 117.374 7.22585C116.533 6.50379 115.486 6.14275 114.231 6.14275C112.964 6.14275 111.899 6.50379 111.035 7.22585C110.183 7.94792 109.537 8.9304 109.1 10.1733C108.673 11.4162 108.46 12.8307 108.46 14.4169C108.46 16.0031 108.673 17.4176 109.1 18.6605C109.537 19.9034 110.183 20.8859 111.035 21.608C111.899 22.3182 112.964 22.6733 114.231 22.6733Z" fill="white"/>
</svg>
